<svg width="43" height="43" viewBox="0 0 43 43" fill="none" xmlns="http://www.w3.org/2000/svg">
<path fill-rule="evenodd" clip-rule="evenodd" d="M21.0098 0.781738C9.40642 0.781738 0 10.1882 0 21.7916C0 33.395 9.40642 42.8014 21.0098 42.8014C32.6132 42.8014 42.0196 33.395 42.0196 21.7916C42.0196 10.1882 32.6132 0.781738 21.0098 0.781738ZM22.3316 19.3379L22.2812 18.5074C22.1301 16.355 23.4563 14.389 25.5548 13.6264C26.327 13.3552 27.6364 13.3213 28.4926 13.5586C28.8283 13.6603 29.4663 13.9992 29.9195 14.3043L30.7421 14.8636L31.6486 14.5755C32.1523 14.4229 32.8238 14.1687 33.1259 13.9992C33.4113 13.8467 33.6631 13.762 33.6631 13.8128C33.6631 14.1009 33.042 15.0839 32.5216 15.6262C31.8165 16.3889 32.018 16.4567 33.4449 15.9482C34.3011 15.6601 34.3178 15.6601 34.15 15.9821C34.0492 16.1516 33.5288 16.7448 32.9748 17.2871C32.0347 18.2193 31.9844 18.321 31.9844 19.1006C31.9844 20.3039 31.4136 22.8122 30.8428 24.185C29.7852 26.7611 27.5189 29.4219 25.2526 30.7608C22.063 32.6421 17.8157 33.1166 14.24 32.015C13.0481 31.6421 11 30.693 11 30.5236C11 30.4727 11.6211 30.4049 12.3766 30.388C13.9546 30.3541 15.5326 29.9134 16.8756 29.1338L17.7822 28.5915L16.7413 28.2356C15.264 27.7271 13.9378 26.5577 13.6021 25.4561C13.5013 25.1002 13.5349 25.0832 14.475 25.0832L15.4487 25.0663L14.6261 24.6765C13.6524 24.185 12.7627 23.3545 12.3262 22.5071C12.0072 21.897 11.6044 20.3547 11.7219 20.2361C11.7554 20.1853 12.108 20.2869 12.5109 20.4225C13.6692 20.8462 13.8203 20.7445 13.1488 20.0327C11.8897 18.7447 11.5036 16.8295 12.108 15.0161L12.3934 14.2026L13.5013 15.3042C15.7677 17.5244 18.4369 18.8464 21.4922 19.2362L22.3316 19.3379Z" fill="white"/>
</svg>
