<svg width="86" height="127" viewBox="0 0 86 127" fill="none" xmlns="http://www.w3.org/2000/svg">
<path d="M1.93357 62.6267H5.80321V64.5602C5.80321 65.0731 6.00694 65.5648 6.36955 65.9275C6.73216 66.2901 7.22396 66.4938 7.73677 66.4938C8.24959 66.4938 8.74138 66.2901 9.104 65.9275C9.46661 65.5648 9.67034 65.0731 9.67034 64.5602V62.6267H13.54C14.0528 62.6267 14.5446 62.423 14.9072 62.0604C15.2698 61.6978 15.4735 61.206 15.4735 60.6932V33.6157C15.4735 33.1029 15.2698 32.611 14.9072 32.2484C14.5446 31.8858 14.0528 31.6821 13.54 31.6821H9.67034V22.0092C9.67034 21.7553 9.62033 21.5038 9.52316 21.2693C9.42599 21.0347 9.28354 20.8216 9.104 20.642C8.92445 20.4625 8.71128 20.32 8.47669 20.2228C8.2421 20.1257 7.99069 20.0757 7.73677 20.0757C7.48286 20.0757 7.23145 20.1257 6.99686 20.2228C6.76227 20.32 6.5491 20.4625 6.36955 20.642C6.19001 20.8216 6.04756 21.0347 5.95039 21.2693C5.85322 21.5038 5.80321 21.7553 5.80321 22.0092V31.6821H1.93357C1.42076 31.6821 0.928896 31.8858 0.566284 32.2484C0.203672 32.611 0 33.1029 0 33.6157V60.6932C0 61.206 0.203672 61.6978 0.566284 62.0604C0.928896 62.423 1.42076 62.6267 1.93357 62.6267ZM3.86964 35.5492H11.6039V58.7519H3.86964V35.5492Z" fill="white"/>
<path d="M25.1439 43.9135H29.011V46.5257C29.0016 46.7857 29.0446 47.0449 29.1376 47.2879C29.2306 47.5309 29.3715 47.7527 29.5521 47.94C29.7327 48.1273 29.9492 48.2763 30.1887 48.378C30.4281 48.4798 30.6857 48.5322 30.9458 48.5322C31.206 48.5322 31.4636 48.4798 31.703 48.378C31.9425 48.2763 32.159 48.1273 32.3396 47.94C32.5202 47.7527 32.6611 47.5309 32.7541 47.2879C32.8471 47.0449 32.8901 46.7857 32.8807 46.5257V43.9135H36.7478C37.0019 43.9135 37.2536 43.8634 37.4883 43.766C37.7231 43.6687 37.9363 43.5261 38.1159 43.3463C38.2955 43.1664 38.4379 42.953 38.5349 42.7181C38.6319 42.4832 38.6817 42.2315 38.6814 41.9773V18.7695C38.6817 18.5155 38.6319 18.264 38.5349 18.0292C38.4378 17.7945 38.2954 17.5812 38.1158 17.4016C37.9362 17.2219 37.7229 17.0796 37.4882 16.9825C37.2534 16.8855 37.0018 16.8357 36.7478 16.836H32.8807V9.77789C32.8624 9.27692 32.6506 8.80252 32.2897 8.45456C31.9289 8.10659 31.4471 7.91216 30.9458 7.91216C30.4445 7.91216 29.9628 8.10659 29.6019 8.45456C29.2411 8.80252 29.0293 9.27692 29.011 9.77789V16.836H25.1439C24.6311 16.836 24.1393 17.0397 23.7767 17.4023C23.4141 17.7649 23.2103 18.2567 23.2103 18.7695V41.9773C23.2103 42.4904 23.4139 42.9825 23.7765 43.3455C24.139 43.7085 24.6308 43.9128 25.1439 43.9135ZM27.0775 20.7031H34.8168V40.0566H27.08L27.0775 20.7031Z" fill="white"/>
<path d="M48.3517 48.3542H52.2316V52.2214C52.2316 52.7342 52.4353 53.226 52.798 53.5886C53.1606 53.9512 53.6524 54.1549 54.1652 54.1549C54.678 54.1549 55.1698 53.9512 55.5324 53.5886C55.895 53.226 56.0987 52.7342 56.0987 52.2214V48.3542H59.9684C60.2223 48.3542 60.4738 48.3042 60.7084 48.207C60.9429 48.1099 61.1561 47.9675 61.3356 47.7879C61.5152 47.6084 61.6576 47.3952 61.7548 47.1606C61.8519 46.926 61.902 46.6746 61.902 46.4207V15.471C61.902 14.9582 61.6982 14.4664 61.3356 14.1038C60.973 13.7412 60.4812 13.5374 59.9684 13.5374H56.0987V1.93351C56.0987 1.42069 55.895 0.928896 55.5324 0.566284C55.1698 0.203672 54.678 0 54.1652 0C53.6524 0 53.1606 0.203672 52.798 0.566284C52.4353 0.928896 52.2316 1.42069 52.2316 1.93351V13.5374H48.3619C47.8491 13.5374 47.3573 13.7412 46.9947 14.1038C46.6321 14.4664 46.4284 14.9582 46.4284 15.471V46.4181C46.4277 46.9296 46.6297 47.4205 46.9902 47.7834C47.3507 48.1462 47.8402 48.3515 48.3517 48.3542ZM50.2878 17.4097H58.0246V44.4871H50.2878V17.4097Z" fill="white"/>
<path d="M71.562 56.0911H75.4292V59.9581C75.4474 60.4591 75.6592 60.9335 76.0201 61.2815C76.381 61.6294 76.8627 61.8239 77.364 61.8239C77.8653 61.8239 78.347 61.6294 78.7079 61.2815C79.0688 60.9335 79.2806 60.4591 79.2988 59.9581V56.0911H83.1659C83.4201 56.0914 83.6718 56.0416 83.9067 55.9446C84.1416 55.8475 84.355 55.7052 84.5348 55.5256C84.7146 55.346 84.8573 55.1328 84.9547 54.898C85.052 54.6633 85.1021 54.4116 85.1021 54.1575V34.8142C85.1021 34.5601 85.052 34.3085 84.9547 34.0737C84.8573 33.8389 84.7146 33.6257 84.5348 33.4461C84.355 33.2665 84.1416 33.1241 83.9067 33.0271C83.6718 32.9301 83.4201 32.8803 83.1659 32.8807H79.2988V23.2103C79.2806 22.7094 79.0688 22.235 78.7079 21.887C78.347 21.539 77.8653 21.3446 77.364 21.3446C76.8627 21.3446 76.381 21.539 76.0201 21.887C75.6592 22.235 75.4474 22.7094 75.4292 23.2103V32.8858H71.562C71.0492 32.8858 70.5574 33.0895 70.1948 33.4521C69.8322 33.8148 69.6285 34.3066 69.6285 34.8194V54.1626C69.6298 54.6745 69.8342 55.165 70.1966 55.5265C70.5591 55.888 71.0501 56.0911 71.562 56.0911ZM73.4956 36.7504H81.2324V52.2214H73.4879L73.4956 36.7504Z" fill="white"/>
<path d="M64.1607 83.2402C56.555 80.1013 48.6359 77.7832 40.5381 76.3255V53.8271C40.5381 49.5272 37.3214 45.9879 33.2161 45.7727C32.1663 45.7136 31.1154 45.8706 30.1286 46.234C29.1419 46.5974 28.2402 47.1596 27.4795 47.8856C26.7188 48.6096 26.1127 49.4804 25.6981 50.4453C25.2834 51.4101 25.0688 52.4491 25.067 53.4993V91.379L17.7247 84.0366C16.5922 82.9077 15.0584 82.2737 13.4593 82.2737C11.8602 82.2737 10.3264 82.9077 9.19394 84.0366L8.02867 85.2045C7.25512 85.9734 6.70518 86.9382 6.43768 87.9956C6.17017 89.053 6.19519 90.1632 6.51002 91.2074L11.1019 106.507C11.3392 107.294 11.7341 108.024 12.2624 108.654C12.7907 109.283 13.4414 109.799 14.1751 110.169L19.3996 112.789C19.3141 113.003 19.2681 113.23 19.2638 113.46V125.066C19.2638 125.579 19.4676 126.071 19.8302 126.434C20.1928 126.796 20.6846 127 21.1974 127H63.7561C64.01 127 64.2614 126.95 64.496 126.853C64.7306 126.756 64.9438 126.613 65.1233 126.434C65.3029 126.254 65.4453 126.041 65.5425 125.806C65.6396 125.572 65.6897 125.32 65.6897 125.066V113.734L70.6145 96.5036C71.3528 93.886 71.1033 91.0884 69.9134 88.6429C68.7234 86.1973 66.6761 84.2746 64.1607 83.2402ZM61.8148 123.12H23.131V115.386H61.8148V123.12ZM66.8856 95.4305L62.2912 111.509H27.3028C27.1649 111.485 27.0248 111.478 26.8854 111.488C26.8008 111.488 26.7163 111.503 26.765 111.509H26.0351C25.6981 111.508 25.3658 111.429 25.0645 111.278L15.914 106.704C15.6497 106.571 15.4151 106.386 15.2245 106.16C15.0339 105.933 14.8912 105.671 14.8051 105.388L10.2158 90.0909C10.1027 89.7158 10.0938 89.3169 10.1899 88.9371C10.286 88.5573 10.4835 88.2107 10.7613 87.9345L11.9291 86.7666C12.3349 86.3608 12.8854 86.1328 13.4593 86.1328C14.0332 86.1328 14.5837 86.3608 14.9895 86.7666L22.6162 94.3959C23.615 95.3947 24.9876 95.9479 26.6651 96.0401C26.9556 96.0602 27.2472 96.0208 27.522 95.9244C27.7968 95.8279 28.0489 95.6764 28.2631 95.4792C28.6741 95.071 28.9141 94.5215 28.9342 93.9426V53.4941C28.9311 52.9669 29.0367 52.4448 29.2442 51.9601C29.4517 51.4754 29.7568 51.0387 30.1404 50.677C30.5229 50.3163 30.9744 50.0367 31.4678 49.855C31.9611 49.6732 32.4861 49.5931 33.0113 49.6194C35.0293 49.7269 36.6709 51.6067 36.6709 53.8117V77.9594C36.6714 78.4175 36.8343 78.8606 37.1306 79.2099C37.427 79.5593 37.8376 79.7922 38.2895 79.8673C46.6551 81.251 54.8356 83.5838 62.6728 86.8205C64.3071 87.4913 65.6387 88.7382 66.4151 90.325C67.1916 91.9119 67.359 93.7285 66.8856 95.4305Z" fill="white"/>
</svg>
