<svg width="94" height="85" viewBox="0 0 94 85" fill="none" xmlns="http://www.w3.org/2000/svg">
<path d="M21.5534 0C20.9278 0 20.3279 0.248501 19.8855 0.69084C19.4432 1.13318 19.1947 1.73312 19.1947 2.35868V82.5538C19.1947 83.1794 19.4432 83.7793 19.8855 84.2216C20.3279 84.664 20.9278 84.9125 21.5534 84.9125C22.1789 84.9125 22.7789 84.664 23.2212 84.2216C23.6636 83.7793 23.9121 83.1794 23.9121 82.5538V2.35868C23.9121 2.04894 23.8511 1.74222 23.7325 1.45605C23.614 1.16988 23.4402 0.909863 23.2212 0.69084C23.0022 0.471816 22.7422 0.298078 22.456 0.179543C22.1698 0.0610083 21.8631 0 21.5534 0Z" fill="white"/>
<path d="M32.5605 29.2214H74.3616C74.9872 29.2214 75.5871 28.9729 76.0294 28.5306C76.4718 28.0882 76.7203 27.4883 76.7203 26.8628C76.7203 26.2372 76.4718 25.6372 76.0294 25.1949C75.5871 24.7526 74.9872 24.5041 74.3616 24.5041H32.5605C31.935 24.5041 31.3351 24.7526 30.8927 25.1949C30.4504 25.6372 30.2019 26.2372 30.2019 26.8628C30.2019 27.4883 30.4504 28.0882 30.8927 28.5306C31.3351 28.9729 31.935 29.2214 32.5605 29.2214Z" fill="white"/>
<path d="M32.5605 41.8011H79.7341C80.3597 41.8011 80.9596 41.5526 81.402 41.1102C81.8443 40.6679 82.0928 40.0679 82.0928 39.4424C82.0928 38.8168 81.8443 38.2169 81.402 37.7745C80.9596 37.3322 80.3597 37.0837 79.7341 37.0837H32.5605C31.935 37.0837 31.3351 37.3322 30.8927 37.7745C30.4504 38.2169 30.2019 38.8168 30.2019 39.4424C30.2019 40.0679 30.4504 40.6679 30.8927 41.1102C31.3351 41.5526 31.935 41.8011 32.5605 41.8011Z" fill="white"/>
<path d="M90.7413 49.6633H32.5605C31.935 49.6633 31.3351 49.9118 30.8927 50.3542C30.4504 50.7965 30.2019 51.3964 30.2019 52.022C30.2019 52.6476 30.4504 53.2475 30.8927 53.6898C31.3351 54.1322 31.935 54.3807 32.5605 54.3807H90.7413C91.3669 54.3807 91.9668 54.1322 92.4091 53.6898C92.8515 53.2475 93.1 52.6476 93.1 52.022C93.1 51.3964 92.8515 50.7965 92.4091 50.3542C91.9668 49.9118 91.3669 49.6633 90.7413 49.6633Z" fill="white"/>
<path d="M32.5605 66.9603H54.0508C54.3605 66.9603 54.6672 66.8993 54.9534 66.7808C55.2395 66.6622 55.4995 66.4885 55.7186 66.2695C55.9376 66.0504 56.1113 65.7904 56.2299 65.5043C56.3484 65.2181 56.4094 64.9114 56.4094 64.6016C56.4094 64.2919 56.3484 63.9852 56.2299 63.699C56.1113 63.4128 55.9376 63.1528 55.7186 62.9338C55.4995 62.7148 55.2395 62.541 54.9534 62.4225C54.6672 62.304 54.3605 62.243 54.0508 62.243H32.5605C31.935 62.243 31.3351 62.4915 30.8927 62.9338C30.4504 63.3761 30.2019 63.9761 30.2019 64.6016C30.2019 65.2272 30.4504 65.8271 30.8927 66.2695C31.3351 66.7118 31.935 66.9603 32.5605 66.9603Z" fill="white"/>
<path d="M4.26292 37.0116C4.07512 36.7547 3.83727 36.5384 3.56367 36.3758C3.29007 36.2132 2.98641 36.1077 2.67094 36.0655C2.35547 36.0234 2.03471 36.0455 1.72803 36.1306C1.42134 36.2157 1.13506 36.362 0.886407 36.5606C0.637751 36.7593 0.431869 37.0062 0.281165 37.2866C0.13046 37.5669 0.0380711 37.8748 0.00951575 38.1918C-0.0190396 38.5088 0.0168295 38.8283 0.115008 39.131C0.213187 39.4338 0.371618 39.7135 0.580767 39.9534L10.4086 52.2841L0.580767 64.6147C0.371618 64.8546 0.213187 65.1344 0.115008 65.4371C0.0168295 65.7399 -0.0190396 66.0594 0.00951575 66.3764C0.0380711 66.6933 0.13046 67.0013 0.281165 67.2816C0.431869 67.5619 0.637751 67.8089 0.886407 68.0075C1.13506 68.2062 1.42134 68.3524 1.72803 68.4375C2.03471 68.5226 2.35547 68.5448 2.67094 68.5026C2.98641 68.4605 3.29007 68.355 3.56367 68.1924C3.83727 68.0298 4.07512 67.8135 4.26292 67.5565L15.2701 53.7517C15.604 53.3354 15.786 52.8177 15.786 52.2841C15.786 51.7504 15.604 51.2327 15.2701 50.8165L4.26292 37.0116Z" fill="white"/>
<path d="M32.5605 18.0832H82.8791C83.1888 18.0832 83.4955 18.0222 83.7817 17.9037C84.0678 17.7851 84.3279 17.6114 84.5469 17.3924C84.7659 17.1733 84.9396 16.9133 85.0582 16.6272C85.1767 16.341 85.2377 16.0343 85.2377 15.7245C85.2377 15.4148 85.1767 15.1081 85.0582 14.8219C84.9396 14.5357 84.7659 14.2757 84.5469 14.0567C84.3279 13.8377 84.0678 13.6639 83.7817 13.5454C83.4955 13.4269 83.1888 13.3659 82.8791 13.3659H32.5605C31.935 13.3659 31.3351 13.6144 30.8927 14.0567C30.4504 14.499 30.2019 15.099 30.2019 15.7245C30.2019 16.3501 30.4504 16.95 30.8927 17.3924C31.3351 17.8347 31.935 18.0832 32.5605 18.0832Z" fill="white"/>
</svg>
