<svg width="102" height="115" viewBox="0 0 102 115" fill="none" xmlns="http://www.w3.org/2000/svg">
<path d="M10.8667 55.9576H2.28C2.12536 55.9576 2 56.0829 2 56.2376V95.2304C2 95.385 2.12536 95.5104 2.28 95.5104H10.8667M10.8667 55.9576H19.4533C19.608 55.9576 19.7333 56.0829 19.7333 56.2376V95.2304C19.7333 95.385 19.608 95.5104 19.4533 95.5104H10.8667M10.8667 55.9576V39.3339M10.8667 112.134V95.5104M91.1333 55.9576H82.5467C82.392 55.9576 82.2667 56.0829 82.2667 56.2376V95.2304C82.2667 95.385 82.392 95.5104 82.5467 95.5104H91.1333M91.1333 55.9576H99.72C99.8746 55.9576 100 56.0829 100 56.2376V95.2304C100 95.385 99.8746 95.5104 99.72 95.5104H91.1333M91.1333 55.9576V39.3339M91.1333 112.134V95.5104M51 18.8368H42.4133C42.2587 18.8368 42.1333 18.9621 42.1333 19.1168V58.6166C42.1333 58.7713 42.2587 58.8966 42.4133 58.8966H51M51 18.8368H59.5867C59.7413 18.8368 59.8667 18.9621 59.8667 19.1168V58.6166C59.8667 58.7713 59.7413 58.8966 59.5867 58.8966H51M51 18.8368V2M51 75.7334V58.8966" stroke="white" stroke-width="4" stroke-linecap="round"/>
</svg>
