<svg width="88" height="123" viewBox="0 0 88 123" fill="none" xmlns="http://www.w3.org/2000/svg">
<path d="M43.7001 120.754V102.624M43.7001 102.624L63.3715 102.624C63.5217 102.624 63.6435 102.502 63.6435 102.352V85.672C63.6435 85.5218 63.5217 85.4 63.3715 85.4H24.0285C23.8783 85.4 23.7565 85.5218 23.7565 85.672V102.352C23.7565 102.502 23.8783 102.624 24.0285 102.624L43.7001 102.624ZM43.7001 84.4935V69.9891M43.7001 69.9891H73.3433C73.4935 69.9891 73.6152 69.8674 73.6152 69.7172V53.0372C73.6152 52.887 73.4935 52.7652 73.3433 52.7652H14.0567C13.9065 52.7652 13.7848 52.887 13.7848 53.0372V69.7172C13.7848 69.8674 13.9065 69.9891 14.0567 69.9891H43.7001ZM43.7001 50.9522V38.2609M43.7001 20.1304V2M43.7001 20.1304H2.27196C2.12176 20.1304 2 20.2522 2 20.4024L2 37.0824C2 37.2326 2.12176 37.3544 2.27196 37.3544H85.128C85.2782 37.3544 85.4 37.2326 85.4 37.0824V20.4024C85.4 20.2522 85.2783 20.1304 85.1281 20.1304L43.7001 20.1304Z" stroke="white" stroke-width="4" stroke-linecap="round"/>
</svg>
