<svg width="104" height="109" viewBox="0 0 104 109" fill="none" xmlns="http://www.w3.org/2000/svg">
<g clip-path="url(#clip0_227_2)">
<path d="M17.0021 57.3988H55.2848C57.5395 57.3966 59.7011 56.4999 61.2954 54.9056C62.8897 53.3113 63.7864 51.1497 63.7886 48.895V23.3863C63.7864 21.1316 62.8897 18.9699 61.2954 17.3756C59.7011 15.7813 57.5395 14.8847 55.2848 14.8824H40.2841L48.5149 3.36387C48.843 2.9051 48.9755 2.33475 48.8831 1.77835C48.7907 1.22195 48.4811 0.725056 48.0223 0.396943C47.5635 0.0688297 46.9932 -0.0636588 46.4368 0.0287232C45.8804 0.121105 45.3835 0.43079 45.0554 0.889551L36.1434 13.3511L27.2427 0.889551C26.9146 0.43079 26.4176 0.121105 25.8612 0.0287232C25.3048 -0.0636588 24.7345 0.0688297 24.2758 0.396943C23.817 0.725056 23.5074 1.22195 23.415 1.77835C23.3226 2.33475 23.455 2.9051 23.7832 3.36387L32.0139 14.8824H17.0021C14.7474 14.8847 12.5857 15.7813 10.9914 17.3756C9.39711 18.9699 8.50047 21.1316 8.49823 23.3863V48.895C8.50047 51.1497 9.39711 53.3113 10.9914 54.9056C12.5857 56.4999 14.7474 57.3966 17.0021 57.3988ZM12.7487 23.3863C12.7495 22.2584 13.1978 21.177 13.9953 20.3796C14.7928 19.5821 15.8742 19.1337 17.0021 19.1329H55.2848C56.4124 19.1344 57.4934 19.583 58.2907 20.3804C59.088 21.1777 59.5366 22.2587 59.5381 23.3863V48.895C59.5366 50.0226 59.088 51.1035 58.2907 51.9009C57.4934 52.6982 56.4124 53.1468 55.2848 53.1483H17.0021C15.8742 53.1475 14.7928 52.6992 13.9953 51.9017C13.1978 51.1042 12.7495 50.0228 12.7487 48.895V23.3863Z" fill="white"/>
<path d="M23.3834 42.5191C25.0745 42.5169 26.6956 41.8441 27.8913 40.6484C29.087 39.4526 29.7598 37.8316 29.762 36.1405V31.89C29.7798 31.0413 29.6281 30.1975 29.3156 29.4082C29.0031 28.6189 28.5362 27.8999 27.9423 27.2933C27.3484 26.6868 26.6393 26.2049 25.8567 25.8759C25.0741 25.5469 24.2338 25.3774 23.3848 25.3774C22.5359 25.3774 21.6955 25.5469 20.9129 25.8759C20.1303 26.2049 19.4213 26.6868 18.8274 27.2933C18.2334 27.8999 17.7665 28.6189 17.4541 29.4082C17.1416 30.1975 16.9898 31.0413 17.0077 31.89V36.1405C17.0092 37.8313 17.6813 39.4524 18.8766 40.6482C20.0718 41.8441 21.6927 42.5169 23.3834 42.5191ZM21.2582 31.89C21.2582 31.3264 21.4821 30.7858 21.8806 30.3872C22.2792 29.9887 22.8198 29.7647 23.3834 29.7647C23.9471 29.7647 24.4876 29.9887 24.8862 30.3872C25.2848 30.7858 25.5087 31.3264 25.5087 31.89V36.1405C25.5087 36.7042 25.2848 37.2448 24.8862 37.6433C24.4876 38.0419 23.9471 38.2658 23.3834 38.2658C22.8198 38.2658 22.2792 38.0419 21.8806 37.6433C21.4821 37.2448 21.2582 36.7042 21.2582 36.1405V31.89Z" fill="white"/>
<path d="M48.8949 42.5191C50.5857 42.5169 52.2065 41.8441 53.4018 40.6482C54.597 39.4524 55.2692 37.8313 55.2707 36.1405V31.89C55.2885 31.0413 55.1367 30.1975 54.8243 29.4082C54.5118 28.6189 54.0449 27.8999 53.451 27.2933C52.857 26.6868 52.148 26.2049 51.3654 25.8759C50.5828 25.5469 49.7424 25.3774 48.8935 25.3774C48.0446 25.3774 47.2042 25.5469 46.4216 25.8759C45.639 26.2049 44.93 26.6868 44.336 27.2933C43.7421 27.8999 43.2752 28.6189 42.9627 29.4082C42.6503 30.1975 42.4985 31.0413 42.5163 31.89V36.1405C42.5186 37.8316 43.1913 39.4526 44.387 40.6484C45.5828 41.8441 47.2039 42.5169 48.8949 42.5191ZM46.7668 31.89C46.7564 31.6042 46.8037 31.3193 46.9059 31.0522C47.0081 30.7851 47.1631 30.5413 47.3616 30.3355C47.5601 30.1296 47.7981 29.9658 48.0613 29.854C48.3245 29.7422 48.6075 29.6845 48.8935 29.6845C49.1795 29.6845 49.4625 29.7422 49.7257 29.854C49.9889 29.9658 50.2269 30.1296 50.4254 30.3355C50.6239 30.5413 50.7789 30.7851 50.8811 31.0522C50.9832 31.3193 51.0306 31.6042 51.0202 31.89V36.1405C51.0001 36.6912 50.7673 37.2125 50.3706 37.595C49.974 37.9775 49.4445 38.1912 48.8935 38.1912C48.3425 38.1912 47.813 37.9775 47.4163 37.595C47.0197 37.2125 46.7869 36.6912 46.7668 36.1405V31.89Z" fill="white"/>
<path d="M68.0279 91.8051V70.1528C68.0271 69.5889 67.8026 69.0484 67.4036 68.6499C67.0046 68.2514 66.4637 68.0276 65.8998 68.0276H50.3587C48.572 66.0239 46.382 64.4205 43.9321 63.3226C41.4823 62.2247 38.828 61.6572 36.1434 61.6572C33.4588 61.6572 30.8045 62.2247 28.3547 63.3226C25.9048 64.4205 23.7148 66.0239 21.9281 68.0276H6.38423C5.82057 68.0276 5.27998 68.2515 4.88142 68.65C4.48286 69.0486 4.25896 69.5891 4.25896 70.1528V91.8051C2.84041 92.3068 1.64489 93.2937 0.883648 94.5916C0.122405 95.8894 -0.155529 97.4146 0.0989656 98.8976C0.35346 100.381 1.124 101.726 2.2744 102.696C3.4248 103.665 4.881 104.197 6.38564 104.197C7.89027 104.197 9.34647 103.665 10.4969 102.696C11.6473 101.726 12.4178 100.381 12.6723 98.8976C12.9268 97.4146 12.6489 95.8894 11.8876 94.5916C11.1264 93.2937 9.93082 92.3068 8.51228 91.8051V72.2809H19.0344C17.7091 74.9198 17.018 77.8317 17.0161 80.7847V106.285C17.0161 106.849 17.24 107.389 17.6386 107.788C18.0372 108.186 18.5777 108.41 19.1414 108.41H53.1455C53.4257 108.412 53.7036 108.358 53.9631 108.253C54.2225 108.147 54.4585 107.99 54.6573 107.793C54.8562 107.595 55.014 107.36 55.1217 107.102C55.2293 106.843 55.2848 106.565 55.2848 106.285V80.7763C55.2829 77.8232 54.5918 74.9114 53.2665 72.2724H63.7886V91.7967C62.3701 92.2983 61.1745 93.2853 60.4133 94.5831C59.652 95.881 59.3741 97.4062 59.6286 98.8891C59.8831 100.372 60.6536 101.717 61.804 102.687C62.9544 103.657 64.4106 104.189 65.9153 104.189C67.4199 104.189 68.8761 103.657 70.0265 102.687C71.1769 101.717 71.9474 100.372 72.2019 98.8891C72.4564 97.4062 72.1785 95.881 71.4173 94.5831C70.656 93.2853 69.4605 92.2983 68.0419 91.7967L68.0279 91.8051ZM6.38141 99.9149C5.96119 99.9143 5.55056 99.7892 5.20143 99.5553C4.8523 99.3214 4.58037 98.9893 4.41994 98.601C4.25952 98.2126 4.21784 97.7854 4.30016 97.3733C4.38248 96.9612 4.58508 96.5827 4.88242 96.2858C5.17975 95.9889 5.55847 95.7867 5.97065 95.705C6.38283 95.6232 6.80998 95.6654 7.19815 95.8264C7.58633 95.9873 7.91808 96.2597 8.15148 96.6091C8.38488 96.9586 8.50946 97.3694 8.50946 97.7896C8.50909 98.0693 8.4536 98.3462 8.34614 98.6044C8.23868 98.8626 8.08136 99.0971 7.88319 99.2945C7.68502 99.4919 7.4499 99.6483 7.19124 99.7547C6.93259 99.8612 6.65547 99.9156 6.37577 99.9149H6.38141ZM51.0258 104.168H21.2582V80.7847C21.2311 78.8133 21.5959 76.8561 22.3316 75.0269C23.0673 73.1977 24.1591 71.5329 25.5436 70.1292C26.9282 68.7255 28.5778 67.6109 30.3967 66.8502C32.2156 66.0894 34.1676 65.6977 36.1392 65.6977C38.1108 65.6977 40.0627 66.0894 41.8817 66.8502C43.7006 67.6109 45.3503 68.7255 46.7348 70.1292C48.1193 71.5329 49.2111 73.1977 49.9468 75.0269C50.6824 76.8561 51.0473 78.8133 51.0202 80.7847L51.0258 104.168ZM65.9054 99.9149C65.4852 99.9143 65.0746 99.7892 64.7255 99.5553C64.3763 99.3214 64.1044 98.9893 63.9439 98.601C63.7835 98.2126 63.7418 97.7854 63.8242 97.3733C63.9065 96.9612 64.1091 96.5827 64.4065 96.2858C64.7038 95.9889 65.0825 95.7867 65.4947 95.705C65.9068 95.6232 66.334 95.6654 66.7222 95.8264C67.1104 95.9873 67.4421 96.2597 67.6755 96.6091C67.9089 96.9586 68.0335 97.3694 68.0335 97.7896C68.0331 98.0693 67.9776 98.3462 67.8701 98.6044C67.7627 98.8626 67.6054 99.0971 67.4072 99.2945C67.209 99.4919 66.9739 99.6483 66.7152 99.7547C66.4566 99.8612 66.1795 99.9156 65.8998 99.9149H65.9054Z" fill="white"/>
<path d="M69.5817 62.3979C70.1454 62.3978 70.686 62.174 71.0849 61.7757L83.4 49.4605L88.2727 54.3359C88.47 54.5334 88.7044 54.6901 88.9623 54.7969C89.2202 54.9038 89.4967 54.9588 89.7758 54.9588C90.055 54.9588 90.3315 54.9038 90.5894 54.7969C90.8473 54.6901 91.0817 54.5334 91.279 54.3359L97.2184 48.3965L99.9658 51.1467C100.365 51.5444 100.905 51.7681 101.469 51.7688C101.748 51.7681 102.024 51.7136 102.282 51.6083C102.672 51.447 103.004 51.1735 103.238 50.8226C103.472 50.4717 103.596 50.0594 103.594 49.6379V41.1341C103.594 40.855 103.539 40.5786 103.432 40.3207C103.326 40.0629 103.169 39.8286 102.972 39.6313C102.774 39.4339 102.54 39.2774 102.282 39.1706C102.024 39.0638 101.748 39.0088 101.469 39.0088H92.9652C92.5447 39.0086 92.1336 39.1332 91.784 39.3667C91.4344 39.6002 91.1618 39.9322 91.0009 40.3206C90.84 40.7091 90.798 41.1365 90.88 41.5489C90.9621 41.9612 91.1646 42.3399 91.462 42.6372L94.2121 45.3845L89.7758 49.8208L84.9032 44.9455C84.7059 44.748 84.4715 44.5913 84.2136 44.4845C83.9557 44.3776 83.6792 44.3225 83.4 44.3225C83.1209 44.3225 82.8444 44.3776 82.5865 44.4845C82.3286 44.5913 82.0943 44.748 81.8969 44.9455L68.0785 58.7638C67.7811 59.061 67.5786 59.4398 67.4966 59.8522C67.4145 60.2645 67.4566 60.6919 67.6175 61.0804C67.7784 61.4688 68.0509 61.8007 68.4006 62.0343C68.7502 62.2678 69.1613 62.3924 69.5817 62.3922V62.3979ZM99.3437 43.2565V44.5035L98.0967 43.2565H99.3437Z" fill="white"/>
</g>
<defs>
<clipPath id="clip0_227_2">
<rect width="103.594" height="108.419" fill="white"/>
</clipPath>
</defs>
</svg>
