<svg width="110" height="114" viewBox="0 0 110 114" fill="none" xmlns="http://www.w3.org/2000/svg">
<path d="M110 83.8484C110.001 89.6757 108.274 95.3724 105.037 100.218C101.8 105.064 97.1986 108.841 91.815 111.071C86.4314 113.301 80.5073 113.885 74.7919 112.749C69.0765 111.612 63.8265 108.806 59.7059 104.685C55.5854 100.565 52.7793 95.3149 51.6427 89.5995C50.5061 83.8841 51.0899 77.96 53.3203 72.5764C55.5507 67.1928 59.3277 62.5916 64.1733 59.3546C69.0189 56.1177 74.7156 54.3905 80.543 54.3914C88.3525 54.401 95.8394 57.5076 101.362 63.0298C106.884 68.5519 109.99 76.0389 110 83.8484ZM55.6132 83.8484C55.6123 88.7792 57.0737 93.5995 59.8124 97.6998C62.5512 101.8 66.4444 104.996 70.9996 106.884C75.5549 108.771 80.5675 109.266 85.4037 108.304C90.2399 107.343 94.6824 104.969 98.1693 101.483C101.656 97.9962 104.031 93.5542 104.993 88.7181C105.956 83.8821 105.462 78.8694 103.575 74.3138C101.689 69.7582 98.4935 65.8644 94.3937 63.1249C90.2939 60.3854 85.4738 58.9232 80.543 58.9232C73.9346 58.9316 67.5992 61.5602 62.9259 66.2327C58.2526 70.9051 55.6229 77.24 55.6132 83.8484Z" fill="white"/>
<path d="M82.8089 71.8395V94.2115C82.7475 94.7695 82.4823 95.2853 82.0642 95.6599C81.646 96.0346 81.1044 96.2417 80.543 96.2417C79.9816 96.2417 79.4399 96.0346 79.0218 95.6599C78.6036 95.2853 78.3385 94.7695 78.2771 94.2115V71.8395C78.3385 71.2814 78.6036 70.7656 79.0218 70.391C79.4399 70.0163 79.9816 69.8092 80.543 69.8092C81.1044 69.8092 81.646 70.0163 82.0642 70.391C82.4823 70.7656 82.7475 71.2814 82.8089 71.8395Z" fill="white"/>
<path d="M94.2023 82.818C94.1998 83.4183 93.9606 83.9933 93.5367 84.4183L82.1387 95.8163C81.7126 96.234 81.1397 96.468 80.543 96.468C79.9463 96.468 79.3734 96.234 78.9472 95.8163L67.5492 84.4183C67.22 83.9793 67.0601 83.4363 67.099 82.8889C67.1379 82.3416 67.373 81.8266 67.761 81.4386C68.149 81.0506 68.6639 80.8156 69.2113 80.7767C69.7586 80.7378 70.3017 80.8976 70.7407 81.2268L80.5338 91.02L90.3224 81.2268C90.6418 80.9155 91.0456 80.7046 91.4836 80.6204C91.9217 80.5363 92.3748 80.5824 92.7869 80.7533C93.1989 80.9241 93.5518 81.2121 93.8018 81.5815C94.0518 81.951 94.1879 82.3857 94.1933 82.8317L94.2023 82.818Z" fill="white"/>
<path d="M0 29.4616C6.97737e-08 23.6344 1.728 17.9382 4.96548 13.0931C8.20297 8.2481 12.8045 4.47194 18.1882 2.2422C23.5719 0.0124551 29.4959 -0.570706 35.211 0.566446C40.9261 1.7036 46.1756 4.50998 50.2957 8.63071C54.4158 12.7514 57.2214 18.0014 58.3577 23.7167C59.4939 29.432 58.9098 35.3559 56.6793 40.7392C54.4487 46.1226 50.6718 50.7235 45.8263 53.9603C40.9807 57.197 35.2842 58.9241 29.457 58.9232C21.6463 58.9147 14.1581 55.8079 8.6355 50.2845C3.11293 44.7611 0.00724097 37.2723 0 29.4616ZM54.3868 29.4616C54.3868 24.531 52.9247 19.7111 50.1854 15.6114C47.4461 11.5117 43.5526 8.3164 38.9972 6.42952C34.4419 4.54265 29.4294 4.04897 24.5935 5.01089C19.7576 5.97281 15.3155 8.34713 11.8291 11.8336C8.34257 15.3201 5.96825 19.7622 5.00633 24.5981C4.04441 29.434 4.53809 34.4465 6.42496 39.0018C8.31184 43.5571 11.5071 47.4506 15.6068 50.1899C19.7065 52.9292 24.5264 54.3914 29.457 54.3914C36.0662 54.3829 42.4023 51.7537 47.0757 47.0803C51.7491 42.4069 54.3784 36.0708 54.3868 29.4616Z" fill="white"/>
<path d="M27.1911 39.8292V17.4527C27.2525 16.8946 27.5177 16.3788 27.9358 16.0042C28.354 15.6296 28.8956 15.4224 29.457 15.4224C30.0184 15.4224 30.5602 15.6296 30.9783 16.0042C31.3964 16.3788 31.6616 16.8946 31.723 17.4527V39.8292C31.6616 40.3873 31.3964 40.903 30.9783 41.2777C30.5602 41.6523 30.0184 41.8595 29.457 41.8595C28.8956 41.8595 28.354 41.6523 27.9358 41.2777C27.5177 40.903 27.2525 40.3873 27.1911 39.8292Z" fill="white"/>
<path d="M15.7977 28.4312C15.803 27.9852 15.9392 27.5505 16.1891 27.1811C16.4391 26.8117 16.792 26.5237 17.2041 26.3528C17.6161 26.182 18.0692 26.1358 18.5073 26.22C18.9453 26.3042 19.349 26.515 19.6684 26.8264L29.457 36.6241L39.2503 26.8264C39.6892 26.4971 40.2322 26.3373 40.7796 26.3762C41.3269 26.4151 41.8419 26.6501 42.2299 27.0381C42.6179 27.4261 42.853 27.9411 42.8919 28.4885C42.9308 29.0358 42.7709 29.5788 42.4417 30.0178L31.0437 41.4158C30.6176 41.8335 30.0447 42.0675 29.448 42.0675C28.8513 42.0675 28.2784 41.8335 27.8522 41.4158L16.4542 30.0178C16.0369 29.5947 15.8013 29.0254 15.7977 28.4312Z" fill="white"/>
</svg>
