<svg width="112" height="112" viewBox="0 0 112 112" fill="none" xmlns="http://www.w3.org/2000/svg">
<g clip-path="url(#clip0_227_32)">
<path d="M56 112C41.1528 111.984 26.9184 106.078 16.4199 95.58C5.92133 85.0814 0.0161705 70.847 0 55.9999C0 55.5097 0.194715 55.0397 0.541282 54.6931C0.887849 54.3466 1.35788 54.1519 1.848 54.1519C2.33812 54.1519 2.80816 54.3466 3.15472 54.6931C3.50129 55.0397 3.696 55.5097 3.696 55.9999C3.69569 68.3298 8.05044 80.2636 15.9919 89.6955C23.9333 99.1275 34.951 105.451 47.1008 107.551C59.2506 109.651 71.7516 107.392 82.3981 101.173C93.0445 94.9532 101.152 85.1732 105.29 73.5584C105.364 73.3198 105.485 73.0985 105.646 72.908C105.807 72.7174 106.005 72.5615 106.228 72.4497C106.452 72.3378 106.695 72.2723 106.944 72.2572C107.193 72.242 107.443 72.2775 107.678 72.3615C107.913 72.4455 108.129 72.5762 108.312 72.7458C108.495 72.9154 108.642 73.1204 108.744 73.3483C108.846 73.5763 108.9 73.8225 108.904 74.0721C108.908 74.3217 108.862 74.5695 108.767 74.8006C104.872 85.6794 97.7132 95.0905 88.2689 101.748C78.8246 108.406 67.5552 111.986 56 112Z" fill="white"/>
<path d="M110.152 57.848C109.91 57.848 109.67 57.8001 109.446 57.7072C109.222 57.6143 109.018 57.478 108.847 57.3064C108.676 57.1347 108.54 56.9309 108.448 56.7068C108.356 56.4826 108.308 56.2424 108.309 56C108.306 43.8931 104.104 32.1622 96.4192 22.8067C88.7348 13.4512 78.0437 7.05026 66.1681 4.69497C54.2926 2.33968 41.9678 4.17583 31.2945 9.89041C20.6212 15.605 12.2601 24.8443 7.63635 36.0334H68.6967C68.9473 36.0202 69.1978 36.0582 69.4331 36.145C69.6685 36.2318 69.8837 36.3656 70.0657 36.5383C70.2476 36.7109 70.3925 36.9189 70.4916 37.1493C70.5906 37.3798 70.6417 37.628 70.6417 37.8788C70.6417 38.1297 70.5906 38.3779 70.4916 38.6084C70.3925 38.8389 70.2476 39.0468 70.0657 39.2194C69.8837 39.3921 69.6685 39.5259 69.4331 39.6127C69.1978 39.6995 68.9473 39.7375 68.6967 39.7243H5.06036C4.79908 39.7382 4.53777 39.6974 4.29318 39.6045C4.04859 39.5116 3.82612 39.3686 3.64 39.1847C3.38247 38.9263 3.20693 38.5977 3.13539 38.2399C3.06384 37.8822 3.09946 37.5113 3.2378 37.1738C7.66607 24.7338 16.3479 14.2587 27.7499 7.5986C39.152 0.938477 52.5407 -1.47824 65.5517 0.775212C78.5626 3.02867 90.3588 9.80735 98.8568 19.9141C107.355 30.0208 112.008 42.8055 111.995 56.0101C111.994 56.498 111.799 56.9655 111.453 57.31C111.108 57.6545 110.64 57.848 110.152 57.848Z" fill="white" stroke="white"/>
<path d="M106.848 75.9719H43.12C42.8773 75.9719 42.637 75.9241 42.4128 75.8312C42.1886 75.7383 41.9849 75.6022 41.8133 75.4306C41.6417 75.259 41.5055 75.0553 41.4127 74.8311C41.3198 74.6069 41.272 74.3666 41.272 74.1239C41.272 73.8812 41.3198 73.6409 41.4127 73.4167C41.5055 73.1925 41.6417 72.9888 41.8133 72.8172C41.9849 72.6456 42.1886 72.5094 42.4128 72.4166C42.637 72.3237 42.8773 72.2759 43.12 72.2759H106.848C107.091 72.2759 107.331 72.3237 107.555 72.4166C107.779 72.5094 107.983 72.6456 108.155 72.8172C108.326 72.9888 108.462 73.1925 108.555 73.4167C108.648 73.6409 108.696 73.8812 108.696 74.1239C108.696 74.3666 108.648 74.6069 108.555 74.8311C108.462 75.0553 108.326 75.259 108.155 75.4306C107.983 75.6022 107.779 75.7383 107.555 75.8312C107.331 75.9241 107.091 75.9719 106.848 75.9719Z" fill="white"/>
<path d="M58.9934 49.4228C58.6285 49.4224 58.2718 49.314 57.9684 49.1112C57.665 48.9085 57.4284 48.6204 57.2885 48.2834C57.1485 47.9464 57.1116 47.5754 57.1821 47.2174C57.2527 46.8593 57.4277 46.5302 57.6851 46.2715L66.08 37.8766L57.6851 29.4868C57.3599 29.1362 57.1831 28.6733 57.1921 28.1953C57.201 27.7172 57.395 27.2612 57.7331 26.9231C58.0712 26.585 58.5271 26.3911 59.0052 26.3822C59.4832 26.3732 59.9462 26.5499 60.2967 26.8751L70 36.5479C70.346 36.8943 70.5403 37.364 70.5403 37.8537C70.5403 38.3433 70.346 38.813 70 39.1595L60.2967 48.8577C60.128 49.0338 59.9258 49.1746 59.7021 49.2716C59.4783 49.3686 59.2373 49.4201 58.9934 49.4228Z" fill="white"/>
<path d="M52.8182 85.6697C52.3296 85.6686 51.8612 85.4747 51.5149 85.13L41.8422 75.4268C41.6704 75.256 41.5341 75.0529 41.4411 74.8292C41.348 74.6056 41.3001 74.3657 41.3001 74.1235C41.3001 73.8813 41.348 73.6414 41.4411 73.4177C41.5341 73.1941 41.6704 72.991 41.8422 72.8202L51.5149 63.117C51.6839 62.9348 51.8879 62.7886 52.1147 62.6871C52.3416 62.5856 52.5865 62.5309 52.835 62.5262C53.0835 62.5216 53.3303 62.5671 53.5608 62.66C53.7913 62.7529 54.0006 62.8914 54.1763 63.0671C54.3521 63.2429 54.4905 63.4522 54.5835 63.6827C54.6764 63.9132 54.722 64.16 54.7173 64.4085C54.7127 64.6569 54.6579 64.9019 54.5564 65.1287C54.4549 65.3556 54.3087 65.5596 54.1265 65.7286L45.7571 74.1031L54.152 82.498C54.4093 82.7568 54.5843 83.0859 54.6549 83.444C54.7255 83.802 54.6885 84.1729 54.5485 84.5099C54.4086 84.847 54.172 85.135 53.8686 85.3378C53.5652 85.5406 53.2086 85.649 52.8436 85.6493L52.8182 85.6697Z" fill="white"/>
</g>
<defs>
<clipPath id="clip0_227_32">
<rect width="112" height="112" fill="white"/>
</clipPath>
</defs>
</svg>
