<svg width="105" height="94" viewBox="0 0 105 94" fill="none" xmlns="http://www.w3.org/2000/svg">
<g clip-path="url(#clip0_227_8)">
<path d="M50.3549 27.0692V29.5404C46.9228 29.8207 44.8349 30.8102 43.136 32.5206C41.4371 34.2309 40.665 36.416 40.665 39.0874C40.6021 40.8599 41.0701 42.6108 42.0091 44.1154C42.8053 45.395 43.9318 46.4364 45.2698 47.13C46.8794 47.9773 48.5873 48.6228 50.3549 49.052V59.8803C49.4695 59.6746 48.6566 59.2316 48.0039 58.599C47.4322 58.0858 46.9778 57.4557 46.6712 56.7513C46.3623 56.0764 46.0362 55.0982 45.6129 53.8283C45.4581 53.2685 45.112 52.7807 44.6347 52.4497C44.1097 52.1143 43.4957 51.9449 42.8729 51.9635C42.4679 51.9531 42.0654 52.0276 41.691 52.1823C41.3166 52.337 40.9788 52.5684 40.6993 52.8616C40.4265 53.1215 40.2088 53.4338 40.0594 53.7798C39.91 54.1258 39.832 54.4983 39.8298 54.8751C39.8408 55.9359 40.0624 56.9839 40.4819 57.9583C40.9663 59.0794 41.6484 60.1044 42.4954 60.9843C43.4109 61.9987 44.5142 62.8262 45.7444 63.4211C47.1726 64.1687 48.7452 64.5999 50.3549 64.6853V67.6197C50.3546 68.1855 50.5262 68.7381 50.8469 69.2042C51.0012 69.3863 51.1972 69.5283 51.4184 69.618C51.6396 69.7076 51.8793 69.7423 52.1168 69.7191C52.7232 69.7191 52.6888 69.5074 52.8376 69.0898C52.9863 68.6722 52.643 68.003 52.643 67.0877V64.6853C55.5031 64.4965 57.2649 63.913 58.8837 62.9348C60.4947 62.0384 61.842 60.7346 62.7907 59.1538C63.6559 57.6377 64.126 55.9283 64.1577 54.183C64.1943 52.8469 63.9507 51.518 63.4427 50.2818C62.9462 49.1115 62.1961 48.0663 61.2462 47.2215C60.186 46.3957 58.9924 45.7573 57.7169 45.3338C56.0584 44.7432 54.3636 44.2598 52.643 43.8866V34.2023C54.9311 34.8372 56.3212 36.13 56.8303 38.0692C56.9906 38.7904 57.3991 39.4324 57.9846 39.883C58.5701 40.3337 59.2952 40.5643 60.0335 40.5346C60.8446 40.5491 61.6291 40.2452 62.2186 39.688C62.498 39.4309 62.7225 39.12 62.8788 38.774C63.0351 38.428 63.1199 38.0541 63.1282 37.6745C63.1144 36.8815 62.9289 36.1009 62.5847 35.3864C62.1766 34.4946 61.6368 33.6693 60.9831 32.9382C59.9652 31.9178 58.7429 31.1244 57.3965 30.6101C55.8668 30.0512 54.2672 29.7066 52.643 29.5861V27.0692C52.643 25.7993 52.4829 25.1587 51.499 25.1587C50.5151 25.1587 50.3549 25.7879 50.3549 27.0692ZM50.3549 43C49.2256 42.7138 48.1978 42.1197 47.3862 41.2839C46.7055 40.6547 46.4366 39.728 46.4366 38.4982C46.4366 37.2683 46.6884 36.2501 47.4206 35.6381C48.2946 34.9486 49.2898 34.4287 50.3549 34.1051V43ZM52.643 49.9157C54.3591 50.4248 55.9665 51.0597 56.7959 51.7919C57.2566 52.1741 57.6288 52.6519 57.8866 53.1921C58.1444 53.7324 58.2817 54.3223 58.2889 54.9209C58.2889 56.1794 57.4938 57.2833 56.6414 58.2271C55.7891 59.171 54.3534 59.8059 52.6373 60.1148L52.643 49.9157Z" fill="white"/>
<path d="M2.51121 14.9194H26.0212C28.3086 13.1997 30.7324 11.6692 33.2686 10.3433H2.51121C1.91334 10.3567 1.34445 10.6037 0.926425 11.0313C0.508399 11.459 0.274372 12.0333 0.274524 12.6313C0.269986 12.9287 0.324411 13.2241 0.434566 13.5004C0.544722 13.7767 0.708455 14.0284 0.91637 14.2411C1.12429 14.4538 1.37221 14.6233 1.64592 14.7397C1.91963 14.8561 2.21378 14.9172 2.51121 14.9194Z" fill="white"/>
<path d="M101.265 80.1299H77.8119C76.0615 82.418 73.6819 83.562 70.7074 84.706H101.265C101.556 84.7114 101.846 84.6587 102.116 84.551C102.387 84.4434 102.634 84.2829 102.842 84.079C103.05 83.8751 103.215 83.6318 103.329 83.3633C103.442 83.0949 103.501 82.8066 103.501 82.5152C103.553 81.2739 102.861 80.1299 101.265 80.1299Z" fill="white"/>
<path d="M104.348 10.5211L95.4416 1.62048C95.2348 1.41225 94.9888 1.24698 94.7178 1.13421C94.4468 1.02144 94.1563 0.963379 93.8628 0.963379C93.5694 0.963379 93.2787 1.02144 93.0078 1.13421C92.7368 1.24698 92.4909 1.41225 92.2841 1.62048C91.862 2.08566 91.6283 2.69126 91.6283 3.31937C91.6283 3.94747 91.862 4.55307 92.2841 5.01825L97.3693 10.3438C97.3693 10.3438 49.5941 10.1436 49.4454 10.1608C46.3622 10.5898 40.482 11.3048 34.2527 14.5024C28.2535 17.7037 23.2373 22.4756 19.741 28.3077C16.2447 34.1399 14.3996 40.8127 14.4032 47.6126C14.4067 54.4124 16.2587 61.0835 19.7611 66.912C23.2635 72.7405 28.2844 77.5072 34.2869 80.7023H7.63082L12.7217 75.5026C13.1427 75.0747 13.3787 74.4984 13.3787 73.8981C13.3787 73.2978 13.1427 72.7215 12.7217 72.2936C12.5141 72.0859 12.2675 71.9211 11.9961 71.8086C11.7247 71.6962 11.4339 71.6383 11.1402 71.6383C10.8464 71.6383 10.5555 71.6962 10.2841 71.8086C10.0127 71.9211 9.76615 72.0859 9.55846 72.2936L0.657932 81.1827C0.449873 81.3891 0.284636 81.6345 0.171938 81.905C0.0592398 82.1755 0.00128174 82.4656 0.00128174 82.7587C0.00128174 83.0517 0.0592398 83.3418 0.171938 83.6123C0.284636 83.8828 0.449873 84.1282 0.657932 84.3346L9.55846 93.2352C9.7655 93.4428 10.0117 93.6073 10.2827 93.7192C10.5537 93.8311 10.8441 93.8883 11.1372 93.8873C11.7308 93.8877 12.3004 93.6533 12.7217 93.2352C13.14 92.7898 13.3728 92.2017 13.3728 91.5907C13.3728 90.9796 13.14 90.3916 12.7217 89.9461L7.63082 84.735H55.9322C61.4121 84.163 65.9883 83.019 69.5463 80.7309H69.4033C75.4158 77.5205 80.4424 72.7358 83.9452 66.8888C87.4481 61.0418 89.2954 54.3525 89.2895 47.5365C89.2836 40.7206 87.4248 34.0345 83.9118 28.1935C80.3989 22.3526 75.3641 17.5766 69.346 14.3766H97.375L92.2898 19.4618C92.0786 19.6681 91.9105 19.9144 91.7951 20.1863C91.6798 20.4581 91.6196 20.7502 91.6181 21.0455C91.6165 21.3408 91.6735 21.6335 91.7859 21.9066C91.8983 22.1797 92.0638 22.4277 92.2728 22.6364C92.4818 22.845 92.7301 23.01 93.0034 23.1219C93.2767 23.2338 93.5695 23.2904 93.8648 23.2883C94.1601 23.2861 94.452 23.2254 94.7237 23.1096C94.9953 22.9938 95.2414 22.8252 95.4473 22.6136L104.354 13.713C104.772 13.2928 105.006 12.7241 105.006 12.1314C105.006 11.5386 104.772 10.9699 104.354 10.5497L104.348 10.5211ZM84.8134 47.4278C84.8134 53.9489 82.8797 60.3236 79.2568 65.7457C75.6339 71.1678 70.4845 75.3938 64.4598 77.8893C58.4351 80.3848 51.8056 81.0377 45.4098 79.7655C39.014 78.4933 33.1391 75.3531 28.528 70.742C23.9169 66.1309 20.7768 60.256 19.5046 53.8602C18.2324 47.4644 18.8853 40.835 21.3808 34.8103C23.8763 28.7856 28.1023 23.6362 33.5244 20.0132C38.9465 16.3903 45.3212 14.4566 51.8423 14.4566C60.584 14.4657 68.965 17.9424 75.1464 24.1237C81.3277 30.3051 84.8044 38.6861 84.8134 47.4278Z" fill="white"/>
</g>
<defs>
<clipPath id="clip0_227_8">
<rect width="105" height="92.8961" fill="white" transform="translate(0 0.962402)"/>
</clipPath>
</defs>
</svg>
