<svg width="107" height="33" viewBox="0 0 107 33" fill="none" xmlns="http://www.w3.org/2000/svg">
<path d="M39.6802 17.082H30.6897V9.18391C30.6897 8.53482 30.1643 8.00828 29.5167 8.00828H26.473V29.719C26.473 30.3681 26.9984 30.8946 27.6461 30.8946H30.6897V20.7678H39.6847V29.7144C39.6757 30.3635 40.192 30.8991 40.8397 30.9082H43.9014V9.18391C43.9014 8.53482 43.376 8.00828 42.7283 8.00828H39.6802V17.082ZM57.5343 13.6867V24.567C57.5433 25.5566 57.027 26.478 56.1755 26.9864C53.7932 28.3663 51.3248 26.6369 51.3248 24.3673V14.8624C51.3248 14.2133 50.7994 13.6867 50.1517 13.6867H47.1081V24.7577C47.1171 28.3255 49.9977 31.2123 53.5576 31.2305H55.2878C58.8523 31.2214 61.7419 28.3254 61.751 24.7531V14.8624C61.751 14.2133 61.2256 13.6867 60.5779 13.6867H57.5343Z" fill="white"/>
<path d="M106.626 30.9083V15.4934C106.626 14.8443 106.101 14.3178 105.453 14.3178H102.41V29.7236C102.405 30.3727 102.926 30.9038 103.574 30.9083H106.626Z" fill="white"/>
<path d="M106.69 11.234C107.187 10.0319 106.618 8.65378 105.418 8.15586C104.219 7.65794 102.844 8.22876 102.347 9.43083C101.85 10.6329 102.42 12.011 103.619 12.5089C104.819 13.0069 106.194 12.436 106.69 11.234Z" fill="white"/>
<path d="M72.6301 13.6772C68.2141 13.6772 64.5998 16.841 64.5998 21.2667V23.6588C64.5998 28.0845 68.2141 31.2301 72.6301 31.2301C77.0461 31.2301 80.6603 28.0845 80.6603 23.6588V21.2667C80.6649 16.841 77.0506 13.6772 72.6301 13.6772ZM76.4256 23.9448C76.4256 26.0373 74.718 27.4308 72.6256 27.4308C70.5331 27.4308 68.8301 26.0373 68.8301 23.9448V20.958C68.8301 18.8655 70.5376 17.472 72.6256 17.472C74.7135 17.472 76.4256 18.8655 76.4256 20.958V23.9448Z" fill="white"/>
<path d="M91.5395 13.6766C90.2169 13.6676 88.9125 13.9671 87.7214 14.5436V9.2056C87.7214 8.5565 87.196 8.02996 86.5483 8.02996H83.5047V23.6582C83.5047 28.0839 87.119 31.2295 91.535 31.2295C95.9509 31.2295 99.5652 28.0839 99.5652 23.6582V21.2661C99.5697 16.8404 95.9645 13.6766 91.5395 13.6766ZM95.3395 23.9442C95.3395 26.0367 93.632 27.4302 91.5395 27.4302C89.4515 27.4302 87.744 26.0367 87.744 23.9442V20.9574C87.744 18.8649 89.4515 17.4714 91.5395 17.4714C93.6274 17.4714 95.3395 18.8649 95.3395 20.9574V23.9442Z" fill="white"/>
<path d="M13.7279 9.88658C13.7279 5.27482 11.4859 1.30307 9.77843 0.0139556C9.77843 0.0139556 9.64708 -0.0586706 9.66067 0.127434C9.52026 9.03776 4.97748 11.4526 2.48189 14.7026C-3.27925 22.2103 2.07426 30.4398 7.53647 31.9604C10.5801 32.8138 6.82992 30.4534 6.34529 25.474C5.75197 19.4642 13.7279 14.8706 13.7279 9.88658Z" fill="white"/>
<path d="M16.3458 12.9228C16.3095 12.9001 16.2597 12.882 16.228 12.941C16.1329 14.0621 14.9915 16.4588 13.5422 18.6648C8.62801 26.1362 11.4271 29.7403 13.0032 31.6785C13.9181 32.7997 13.0032 31.6785 15.2859 30.5301C18.1076 28.8143 19.9374 25.8457 20.2092 22.5503C20.6576 17.2395 17.4781 13.8942 16.3458 12.9228Z" fill="white"/>
</svg>
