<svg width="43" height="43" viewBox="0 0 43 43" fill="none" xmlns="http://www.w3.org/2000/svg">
<path fill-rule="evenodd" clip-rule="evenodd" d="M0.505371 21.7911C0.505371 33.3945 9.91179 42.8009 21.5152 42.8009C33.1186 42.8009 42.525 33.3945 42.525 21.7911C42.525 10.1877 33.1186 0.78125 21.5152 0.78125C9.91179 0.78125 0.505371 10.1877 0.505371 21.7911ZM17.6634 31.4207L18.0209 26.0652L18.0206 26.0649L27.7629 17.2732C28.1905 16.8937 27.6696 16.7087 27.102 17.0529L15.0786 24.6383L9.88513 23.0173C8.76358 22.6739 8.75552 21.9032 10.1369 21.3492L30.3746 13.5456C31.299 13.126 32.1911 13.7676 31.8382 15.1823L28.3917 31.4234C28.1511 32.5775 27.4537 32.8535 26.4875 32.3204L21.2375 28.4416L18.7139 30.8954C18.706 30.9032 18.698 30.9109 18.6902 30.9186C18.4079 31.1933 18.1744 31.4207 17.6634 31.4207Z" fill="#9255F5"/>
</svg>
