<svg width="43" height="43" viewBox="0 0 43 43" fill="none" xmlns="http://www.w3.org/2000/svg">
<path fill-rule="evenodd" clip-rule="evenodd" d="M0.554443 21.7911C0.554443 33.3945 9.96086 42.8009 21.5643 42.8009C33.1677 42.8009 42.5741 33.3945 42.5741 21.7911C42.5741 10.1877 33.1677 0.78125 21.5643 0.78125C9.96086 0.78125 0.554443 10.1877 0.554443 21.7911ZM17.7123 31.4207L18.0698 26.0652L18.0695 26.0649L27.8118 17.2732C28.2394 16.8937 27.7185 16.7087 27.1509 17.0529L15.1275 24.6383L9.93402 23.0173C8.81247 22.6739 8.80441 21.9032 10.1858 21.3492L30.4235 13.5456C31.3478 13.126 32.24 13.7676 31.8871 15.1823L28.4406 31.4234C28.2 32.5775 27.5026 32.8535 26.5364 32.3204L21.2864 28.4416L18.7628 30.8954C18.7548 30.9032 18.7469 30.9109 18.7391 30.9186C18.4568 31.1933 18.2233 31.4207 17.7123 31.4207Z" fill="white"/>
</svg>
